PathFileType  4	(X/Y/Z) subject11/noload/static/trial01/expdata
DataRate	CameraRate	NumFrames	NumMarkers	Units	OrigDataRate	OrigDataStartFrame	OrigNumFrames
100.0	100.0	4	64	mm	100.0	252	287
Frame#	Time	R.Shoulder			L.Shoulder			R.Clavicle			L.Clavicle			R.Biceps			R.Elbow			R.MElbow			R.Forearm			R.Wrist			L.Biceps			L.Elbow			L.MElbow			L.Forearm			L.Wrist			R.ASIS			L.ASIS			R.PSIS			S2			L.PSIS			R.TH1			R.TH2			R.TH3			R.Knee			R.MKnee			R.SH1			R.SH2			R.SH3			R.SH4			R.Ankle			R.MAnkle			R.Heel			R.MT5			R.Toe			L.TH1			L.TH2			L.TH3			L.TH4			L.Knee			L.MKnee			L.SH1			L.SH2			L.SH3			L.Ankle			L.MAnkle			L.Heel			L.MT5			L.Toe			R_HJC			L_HJC			L.HeelGround			L.ToeGround			L.MT5Ground			L.AnkleJoint			L.AnkleJointGround			L.KneeJoint			R.HeelGround			R.ToeGround			R.MT5Ground			R.AnkleJoint			R.AnkleJointGround			R.KneeJoint			MidASIS			MidPSIS			MidClavicle			
		X1	Y1	Z1	X2	Y2	Z2	X3	Y3	Z3	X4	Y4	Z4	X5	Y5	Z5	X6	Y6	Z6	X7	Y7	Z7	X8	Y8	Z8	X9	Y9	Z9	X10	Y10	Z10	X11	Y11	Z11	X12	Y12	Z12	X13	Y13	Z13	X14	Y14	Z14	X15	Y15	Z15	X16	Y16	Z16	X17	Y17	Z17	X18	Y18	Z18	X19	Y19	Z19	X20	Y20	Z20	X21	Y21	Z21	X22	Y22	Z22	X23	Y23	Z23	X24	Y24	Z24	X25	Y25	Z25	X26	Y26	Z26	X27	Y27	Z27	X28	Y28	Z28	X29	Y29	Z29	X30	Y30	Z30	X31	Y31	Z31	X32	Y32	Z32	X33	Y33	Z33	X34	Y34	Z34	X35	Y35	Z35	X36	Y36	Z36	X37	Y37	Z37	X38	Y38	Z38	X39	Y39	Z39	X40	Y40	Z40	X41	Y41	Z41	X42	Y42	Z42	X43	Y43	Z43	X44	Y44	Z44	X45	Y45	Z45	X46	Y46	Z46	X47	Y47	Z47	X48	Y48	Z48	X49	Y49	Z49	X50	Y50	Z50	X51	Y51	Z51	X52	Y52	Z52	X53	Y53	Z53	X54	Y54	Z54	X55	Y55	Z55	X56	Y56	Z56	X57	Y57	Z57	X58	Y58	Z58	X59	Y59	Z59	X60	Y60	Z60	X61	Y61	Z61	X62	Y62	Z62	X63	Y63	Z63	X64	Y64	Z64	

252	2.51000	454.636	1564.795	-270.404	739.620	1568.188	-256.534	564.505	1499.539	-178.445	615.039	1498.745	-173.390	242.127	1495.682	-276.365	141.202	1507.308	-309.460	163.515	1443.989	-372.271	134.240	1381.109	-215.044	120.521	1278.781	-152.861	926.258	1518.354	-250.428	1047.045	1488.899	-249.097	1031.057	1424.212	-312.430	1050.661	1381.235	-144.910	1043.312	1291.514	-78.436	455.856	1030.354	-148.415	711.697	1019.326	-149.044	539.693	1039.120	-356.167	582.866	1016.381	-368.067	629.351	1034.586	-356.141	373.399	798.428	-193.698	373.672	791.221	-302.814	389.898	662.187	-302.996	397.677	528.706	-262.496	528.143	502.020	-250.409	382.747	434.664	-254.643	369.787	323.228	-263.560	385.156	436.550	-338.834	378.791	316.847	-348.156	387.534	112.419	-305.262	472.928	110.730	-279.508	435.786	36.572	-377.673	340.497	39.362	-193.655	430.962	56.296	-78.167	793.879	822.053	-176.515	768.480	694.043	-170.800	803.581	827.300	-282.942	778.302	694.520	-289.051	758.942	532.059	-256.621	628.332	505.269	-274.877	760.516	424.908	-234.698	790.697	446.252	-326.305	797.945	330.834	-342.739	797.240	116.670	-296.518	710.733	112.006	-289.432	755.026	35.765	-384.788	838.471	36.600	-193.654	743.125	58.189	-89.472	470.989	940.597	-246.610	685.832	935.210	-242.867	755.026	0.000	-384.788	743.125	0.000	-89.472	838.471	0.000	-193.654	753.986	114.338	-292.975	753.986	0.000	-292.975	693.637	518.664	-265.749	435.786	0.000	-377.673	430.962	0.000	-78.167	340.497	0.000	-193.655	430.231	111.575	-292.385	430.231	0.000	-292.385	462.910	515.363	-256.452	583.776	1024.840	-148.730	584.522	1036.853	-356.154	589.772	1499.142	-175.917
253	2.52000	454.751	1564.881	-270.032	739.687	1568.058	-256.516	564.560	1499.356	-178.435	615.108	1498.641	-173.388	242.218	1496.008	-275.927	141.363	1507.586	-308.813	163.509	1444.653	-371.950	134.208	1381.062	-215.088	120.569	1278.331	-153.491	926.432	1518.139	-250.582	1047.123	1488.694	-249.304	1031.012	1423.999	-312.659	1051.290	1380.734	-145.262	1043.293	1291.039	-78.879	455.792	1030.380	-148.234	711.668	1019.415	-148.773	539.765	1039.040	-356.024	582.968	1016.327	-367.913	629.512	1034.576	-355.947	373.546	798.416	-193.500	373.826	791.229	-302.635	390.030	662.176	-302.803	397.833	528.677	-262.272	528.097	501.984	-250.302	382.976	434.567	-254.513	369.780	323.318	-263.448	385.204	436.589	-338.724	378.826	316.912	-348.098	387.548	112.440	-305.243	472.921	110.772	-279.455	435.814	36.627	-377.667	340.527	39.394	-193.648	431.021	56.288	-78.161	794.155	822.126	-176.207	768.565	694.057	-170.423	803.647	827.340	-282.525	778.400	694.449	-288.758	758.879	532.042	-256.296	628.237	505.613	-274.440	760.434	424.878	-234.404	790.724	446.348	-325.919	798.171	330.988	-342.481	797.225	116.718	-296.501	710.734	112.060	-289.395	755.057	35.784	-384.775	838.488	36.600	-193.657	743.256	58.129	-89.433	471.046	940.572	-246.445	685.889	935.251	-242.572	755.057	0.000	-384.775	743.256	0.000	-89.433	838.488	0.000	-193.657	753.980	114.389	-292.948	753.980	0.000	-292.948	693.558	518.827	-265.368	435.814	0.000	-377.667	431.021	0.000	-78.161	340.527	0.000	-193.648	430.235	111.606	-292.349	430.235	0.000	-292.349	462.965	515.331	-256.287	583.730	1024.898	-148.504	584.639	1036.808	-355.986	589.834	1498.999	-175.911
254	2.53000	454.655	1565.030	-269.704	739.782	1567.924	-256.494	564.808	1499.135	-178.385	615.145	1498.491	-173.414	242.242	1496.270	-275.438	141.599	1507.851	-307.771	163.441	1445.394	-371.625	134.234	1380.998	-215.078	120.747	1277.802	-153.998	926.471	1517.941	-250.733	1047.266	1488.441	-249.466	1030.894	1423.689	-312.895	1051.563	1379.900	-145.872	1043.983	1290.405	-79.480	455.792	1030.435	-148.090	711.763	1019.395	-148.591	539.975	1038.951	-355.856	583.107	1016.175	-367.756	629.633	1034.477	-355.732	373.563	798.454	-193.311	373.843	791.336	-302.453	390.098	662.210	-302.646	397.824	528.750	-262.113	528.355	502.018	-249.981	383.013	434.633	-254.406	369.803	323.436	-263.351	385.295	436.671	-338.647	379.012	316.920	-347.953	387.592	112.531	-305.226	472.932	110.708	-279.454	435.872	36.683	-377.662	340.533	39.381	-193.661	431.002	56.280	-78.149	794.459	822.272	-175.878	768.513	694.073	-170.087	803.966	827.431	-282.087	778.465	694.451	-288.443	758.850	531.945	-256.091	627.894	505.912	-273.990	760.368	424.846	-234.120	790.865	446.408	-325.665	798.159	331.033	-342.360	797.232	116.707	-296.458	710.754	112.083	-289.367	755.063	35.839	-384.770	838.476	36.588	-193.638	743.254	58.109	-89.441	471.125	940.559	-246.260	685.965	935.182	-242.306	755.063	0.000	-384.770	743.254	0.000	-89.441	838.476	0.000	-193.638	753.993	114.395	-292.913	753.993	0.000	-292.913	693.372	518.928	-265.041	435.872	0.000	-377.662	431.002	0.000	-78.149	340.533	0.000	-193.661	430.262	111.620	-292.340	430.262	0.000	-292.340	463.090	515.384	-256.047	583.778	1024.915	-148.341	584.804	1036.714	-355.794	589.976	1498.813	-175.899
255	2.54000	454.675	1565.198	-269.388	740.239	1568.040	-256.364	565.057	1498.926	-178.352	615.379	1498.256	-173.462	242.205	1496.618	-274.902	141.344	1508.264	-306.911	163.436	1446.114	-371.307	134.073	1380.839	-215.063	120.509	1277.407	-154.543	926.590	1517.682	-250.901	1047.221	1488.082	-249.640	1031.056	1423.381	-313.141	1051.843	1379.579	-145.949	1044.356	1289.911	-79.949	455.733	1030.527	-147.962	711.650	1019.448	-148.385	540.215	1038.835	-355.655	583.272	1016.164	-367.603	629.726	1034.484	-355.563	373.575	798.516	-193.146	373.961	791.353	-302.287	390.112	662.274	-302.504	397.804	528.854	-261.945	528.602	502.059	-249.694	382.940	434.841	-254.295	369.838	323.520	-263.295	385.262	436.746	-338.518	379.150	317.000	-347.863	387.614	112.570	-305.212	472.921	110.728	-279.454	435.980	36.783	-377.650	340.570	39.495	-193.631	431.030	56.307	-78.119	794.363	822.308	-175.469	768.278	694.054	-169.771	803.983	827.342	-281.693	778.913	694.480	-287.935	758.611	531.813	-255.788	627.857	505.997	-273.909	760.477	424.809	-233.884	790.924	446.538	-325.391	798.175	331.008	-342.249	797.213	116.741	-296.429	710.760	112.144	-289.349	754.868	35.903	-384.705	838.452	36.532	-193.614	743.331	58.118	-89.414	471.165	940.581	-246.135	686.002	935.201	-242.008	754.868	0.000	-384.705	743.331	0.000	-89.414	838.452	0.000	-193.614	753.986	114.442	-292.889	753.986	0.000	-292.889	693.234	518.905	-264.849	435.980	0.000	-377.650	431.030	0.000	-78.119	340.570	0.000	-193.631	430.267	111.649	-292.333	430.267	0.000	-292.333	463.203	515.457	-255.820	583.692	1024.987	-148.173	584.971	1036.659	-355.609	590.218	1498.591	-175.907
